{"title":"Heartbreak Ridge","uid":7067398,"size":13712747036,"categoryP":"video","categoryS":"hd___movies","magnet":"?xt=urn:btih:882681035b870b9c969f21b8f613429034497211&amp;dn=Heartbreak+Ridge&amp;tr=udp%3A%2F%2Ftracker.openbittorrent.com%3A80&amp;tr=udp%3A%2F%2Fopen.demonii.com%3A1337&amp;tr=udp%3A%2F%2Ftracker.coppersurfer.tk%3A6969&amp;tr=udp%3A%2F%2Fexodus.desync.com%3A6969","seeders":0,"leechers":1,"uploader":"pery_soy","files":2,"time":1330561223,"description":"MediaInfo:\n\nGeneral\nUnique ID : 222366055937438820719712266165496184976 (0xA74A2502D5F375D7971F6DAC5C4A0090)\nComplete name : Sargento de Hierro 1080p.mkv\nFormat : Matroska\nFormat version : Version 2\nFile size : 12.8 GiB\nDuration : 2h 9mn\nOverall bit rate mode : Variable\nOverall bit rate : 14.1 Mbps\nEncoded date : UTC 2010-06-21 17:44:57\nWriting application : mkvmerge v3.3.0 ('Language') built on Mar 24 2010 14:59:24\nWriting library : libebml v0.8.0 + libmatroska v0.9.0\n\nVideo\nID : 1\nFormat : AVC\nFormat/Info : Advanced Video Codec\nFormat profile : &lt;a class=&quot;__cf_email__&quot; href=&quot;/cdn-cgi/l/email-protection&quot; data-cfemail=&quot;7d35141a153d3149534c&quot;&gt;[email&amp;#160;protected]&lt;/a&gt;&lt;script cf-hash='f9e31' type=&quot;text/javascript&quot;&gt;\n/* &lt;![CDATA[ */!function(){try{var t=&quot;currentScript&quot;in document?document.currentScript:function(){for(var t=document.getElementsByTagName(&quot;script&quot;),e=t.length;e--;)if(t[e].getAttribute(&quot;cf-hash&quot;))return t[e]}();if(t&amp;&amp;t.previousSibling){var e,r,n,i,c=t.previousSibling,a=c.getAttribute(&quot;data-cfemail&quot;);if(a){for(e=&quot;&quot;,r=parseInt(a.substr(0,2),16),n=2;a.length-n;n+=2)i=parseInt(a.substr(n,2),16)^r,e+=String.fromCharCode(i);e=document.createTextNode(e),c.parentNode.replaceChild(e,c)}}}catch(u){}}();/* ]]&gt; */&lt;/script&gt;\nFormat settings, CABAC : Yes\nFormat settings, ReFrames : 4 frames\nCodec ID : V_MPEG4/ISO/AVC\nDuration : 2h 9mn\nBit rate : 9 926 Kbps\nNominal bit rate : 8 125 Kbps\nWidth : 1 920 pixels\nHeight : 1 080 pixels\nDisplay aspect ratio : 16:9\nFrame rate : 23.976 fps\nColor space : YUV\nChroma subsampling : 4:2:0\nBit depth : 8 bits\nScan type : Progressive\nBits/(Pixel*Frame) : 0.200\nStream size : 9.01 GiB (71%)\nWriting library : x264 core 98 r1643 59a9e03\nEncoding settings : cabac=1 / ref=4 / deblock=1:0:0 / analyse=0x3:0x133 / me=umh / subme=8 / psy=1 / psy_rd=1.00:0.00 / mixed_ref=1 / me_range=16 / chroma_me=1 / trellis=1 / 8x8dct=1 / cqm=0 / deadzone=21,11 / fast_pskip=0 / chroma_qp_offset=-2 / threads=18 / sliced_threads=0 / nr=0 / decimate=1 / interlaced=0 / constrained_intra=0 / bframes=3 / b_pyramid=2 / b_adapt=1 / b_bias=0 / direct=1 / weightb=1 / weightp=2 / keyint=250 / keyint_min=25 / scenecut=40 / intra_refresh=0 / rc_lookahead=40 / rc=2pass / mbtree=1 / bitrate=8125 / ratetol=1.0 / qcomp=0.60 / qpmin=10 / qpmax=51 / qpstep=4 / cplxblur=20.0 / qblur=0.5 / ip_ratio=1.40 / aq=1:1.00\nLanguage : English\n\nAudio #1\nID : 2\nFormat : AC-3\nFormat/Info : Audio Coding 3\nFormat profile : Dolby Digital\nMode extension : CM (complete main)\nCodec ID : A_AC3\nDuration : 2h 9mn\nBit rate mode : Constant\nBit rate : 192 Kbps\nChannel(s) : 2 channels\nChannel positions : Front: L R\nSampling rate : 48.0 KHz\nBit depth : 16 bits\nCompression mode : Lossy\nStream size : 178 MiB (1%)\nTitle : AC3\nLanguage : Spanish\n\nAudio #2\nID : 3\nFormat : DTS\nFormat/Info : Digital Theater Systems\nFormat profile : MA / Core\nCodec ID : A_DTS\nDuration : 2h 9mn\nBit rate mode : Variable\nBit rate : 2 161 Kbps / 1 510 Kbps\nChannel(s) : 6 channels\nChannel positions : Front: L C R, Side: L R, LFE\nSampling rate : 48.0 KHz\nBit depth : 24 bits\nCompression mode : Lossless / Lossy\nTitle : DTS\nLanguage : Spanish\n\nAudio #3\nID : 4\nFormat : DTS\nFormat/Info : Digital Theater Systems\nCodec ID : A_DTS\nDuration : 2h 9mn\nBit rate mode : Constant\nBit rate : 1 510 Kbps\nChannel(s) : 6 channels\nChannel positions : Front: L C R, Side: L R, LFE\nSampling rate : 48.0 KHz\nBit depth : 24 bits\nCompression mode : Lossy\nStream size : 1.37 GiB (11%)\nTitle : DTS\nLanguage : English\n\nText\nID : 5\nFormat : UTF-8\nCodec ID : S_TEXT/UTF8\nCodec ID/Info : UTF-8 Plain Text\nLanguage : Spanish\n","torrent":{"xt":"urn:btih:882681035b870b9c969f21b8f613429034497211","amp;dn":"Heartbreak+Ridge","amp;tr":["udp%3A%2F%2Ftracker.openbittorrent.com%3A80","udp%3A%2F%2Fopen.demonii.com%3A1337","udp%3A%2F%2Ftracker.coppersurfer.tk%3A6969","udp%3A%2F%2Fexodus.desync.com%3A6969"],"infoHash":"882681035b870b9c969f21b8f613429034497211","infoHashBuffer":{"type":"Buffer","data":[136,38,129,3,91,135,11,156,150,159,33,184,246,19,66,144,52,73,114,17]},"announce":[],"urlList":[]}}